<svg xmlns="http://www.w3.org/2000/svg" viewBox="0 0 800 300" width="800" height="300" font-family="'Segoe UI', system-ui, -apple-system, Roboto, sans-serif" role="img" aria-label="Scan to interactive view on a warm C: drive, lower is better: WinBlaze engine 2.4s, WinBlaze in-app 4.0s, WinDirStat 2.6 10.5s, WizTree 4.31 14.0s">
  <defs>
    <linearGradient id="red" x1="0" y1="0" x2="1" y2="0">
      <stop offset="0" stop-color="#FF5A4D"/>
      <stop offset="1" stop-color="#C2130E"/>
    </linearGradient>
    <linearGradient id="gray" x1="0" y1="0" x2="1" y2="0">
      <stop offset="0" stop-color="#5A6472"/>
      <stop offset="1" stop-color="#39414D"/>
    </linearGradient>
    <filter id="glow" x="-20%" y="-40%" width="140%" height="180%">
      <feDropShadow dx="0" dy="2" stdDeviation="3" flood-color="#C2130E" flood-opacity="0.35"/>
    </filter>
  </defs>

  <!-- card -->
  <rect x="0.5" y="0.5" width="799" height="299" rx="18" fill="#0E1116" stroke="#232A34" stroke-width="1"/>

  <!-- title -->
  <text x="28" y="40" fill="#F2F4F8" font-size="22" font-weight="700">Scan &#8594; interactive view</text>
  <text x="28" y="61" fill="#8A93A2" font-size="13">Warm C:\ &#183; lower is better</text>

  <!-- legend -->
  <rect x="583" y="30" width="14" height="14" rx="3" fill="url(#red)"/>
  <text x="603" y="42" fill="#C9D0DA" font-size="12.5">WinBlaze</text>
  <rect x="680" y="30" width="14" height="14" rx="3" fill="url(#gray)"/>
  <text x="700" y="42" fill="#C9D0DA" font-size="12.5">Competitors</text>

  <!-- gridlines: 0,5,10,15 s over x 230..770 (36 px/s) -->
  <g stroke="#20262F" stroke-width="1">
    <line x1="230" y1="86" x2="230" y2="252"/>
    <line x1="410" y1="86" x2="410" y2="252"/>
    <line x1="590" y1="86" x2="590" y2="252"/>
    <line x1="770" y1="86" x2="770" y2="252"/>
  </g>
  <g fill="#6B7482" font-size="11" text-anchor="middle">
    <text x="230" y="270">0</text>
    <text x="410" y="270">5</text>
    <text x="590" y="270">10</text>
    <text x="770" y="270">15 s</text>
  </g>

  <!-- rows -->
  <!-- WinBlaze engine 2.4s -> 86.4px -->
  <text x="215" y="112" fill="#E6E9EF" font-size="13" font-weight="600" text-anchor="end">WinBlaze &#8212; engine</text>
  <rect x="230" y="96" width="86.4" height="24" rx="6" fill="url(#red)" filter="url(#glow)"/>
  <text x="326" y="113" fill="#FFFFFF" font-size="13" font-weight="700">2.4 s</text>

  <!-- WinBlaze in-app 4.0s -> 144px -->
  <text x="215" y="154" fill="#E6E9EF" font-size="13" font-weight="600" text-anchor="end">WinBlaze &#8212; in-app</text>
  <rect x="230" y="138" width="144" height="24" rx="6" fill="url(#red)" filter="url(#glow)"/>
  <text x="384" y="155" fill="#FFFFFF" font-size="13" font-weight="700">4.0 s</text>

  <!-- WinDirStat 10.5s -> 378px -->
  <text x="215" y="196" fill="#AEB6C2" font-size="13" text-anchor="end">WinDirStat 2.6</text>
  <rect x="230" y="180" width="378" height="24" rx="6" fill="url(#gray)"/>
  <text x="618" y="197" fill="#C9D0DA" font-size="13" font-weight="600">10.5 s</text>

  <!-- WizTree 14.0s (best) -> 504px -->
  <text x="215" y="238" fill="#AEB6C2" font-size="13" text-anchor="end">WizTree 4.31</text>
  <rect x="230" y="222" width="504" height="24" rx="6" fill="url(#gray)"/>
  <text x="744" y="239" fill="#C9D0DA" font-size="13" font-weight="600">14.0 s</text>
</svg>
